<svg id="图层_1" data-name="图层 1" xmlns="http://www.w3.org/2000/svg" viewBox="0 0 54.5487 59.5471"><defs><style>.cls-1{fill:#fff;}.cls-10,.cls-2,.cls-5,.cls-7,.cls-8{fill:none;}.cls-2{stroke:#fff;stroke-width:0.281px;}.cls-3{fill:#777c84;}.cls-11,.cls-4{fill:#1d2d5c;}.cls-6{fill:#c4ced4;}.cls-7{stroke:#c4ced4;}.cls-10,.cls-7,.cls-8{stroke-width:0.073px;}.cls-8{stroke:#1d2d5c;}.cls-9{fill:#cf1f44;}.cls-10{stroke:#cf1f44;}.cls-11{fill-rule:evenodd;}</style></defs><title>New-Jersey-Nets-Classic-2K</title><path class="cls-1" d="M353.9067,132.2124c0.2393-.5552.4693-1.1221,0.6934-1.6816,4.3677,0.6372,7.125,1.4487,7.2934,2.2954a1.06,1.06,0,0,1-.143.1479c-0.0049,0-.0049.0069-0.0093,0.0069a1.8219,1.8219,0,0,1-.1953.1435c-0.0068.0054-.0171,0.0117-0.023,0.0176a4.6774,4.6774,0,0,1-.5512.2744c-0.0171.0054-.0332,0.0117-0.0493,0.0176-0.1036.0473-.2188,0.0889-0.3384,0.13-0.0117.0058-.0279,0.0058-0.044,0.0122-0.1093.041-.2358,0.0781-0.3608,0.1191-0.0161.0068-.0371,0.0117-0.0557,0.0181-0.1343.042-.2768,0.0766-0.4243,0.12-0.0264.0044-.061,0.0176-0.0933,0.0234-0.1518.0415-.3056,0.0777-0.4741,0.1192a51.3863,51.3863,0,0,1-6.4609.96h-0.0645c0.481-.9189.9126-1.8369,1.3-2.7236m-34.5879,1.9717a0.0953,0.0953,0,0,1-.0483-0.0176c-4.3355-.68-7.66-1.519-7.8731-2.4434,0.5074-.7207,2.6094-1.3354,5.8252-1.7822,0.1861,0.4346.918,2.0806,2.0962,4.2432m44.2793-2.1152c-0.0439-.7627-1.2895-1.4966-3.4306-2.1514a42.0952,42.0952,0,0,0-4.9229-1.1275,60.9391,60.9391,0,0,0,3.3472-20.4023s-1.3008-.8164-3.2988-2.1216-4.9414-3.1118-8.7027-5.0967c-1.8828-.9892-3.9746-2.0322-6.2568-3.0815-2.2764-1.043-4.7495-2.0986-7.398-3.1177-2.6528-1.0185-5.48-1.9966-8.4673-2.8965-2.9926-.8994-6.1425-1.71-9.44-2.3838q-1.4825,1.287-2.9643,2.5806s-0.1,1.0142-.148,2.8438c-0.0483,1.8349-.0435,4.4946.1641,7.7954,0.1089,1.6513.2617,3.4634,0.4907,5.4062,0.23,1.95.5234,4.023,0.9126,6.21,0.3872,2.1884.8682,4.4829,1.4575,6.86,0.54,2.1875,1.1792,4.4473,1.9155,6.7481a32.3414,32.3414,0,0,0-4.2426.9477c-1.8882.59-3.0079,1.2871-3.15,2.05a1.0374,1.0374,0,0,0-.1245.6319c0,0.0058,0,.0058.0063,0.0058,0,0.0054-.0063.0054,0,0.0122,0.0376,0.7691,1.2817,1.4956,3.2813,2.1519a50.1751,50.1751,0,0,0,7.4687,1.6445q0.5134,0.8854,1.103,1.8237a40.5114,40.5114,0,0,0,4.7491,6.2237,28.7225,28.7225,0,0,0,6.94,5.3159c1.3906-.1011,2.7842-0.2031,4.1689-0.2964A26.4867,26.4867,0,0,0,352.0058,136.05a54.5447,54.5447,0,0,0,7.9878-1.4429c1.84-.5244,3.042-1.1137,3.3907-1.7339h0a1.455,1.455,0,0,0,.2138-0.8046" transform="translate(-309.1904 -89.5384)"/><path class="cls-2" d="M353.9067,132.2124c0.2393-.5552.4693-1.1221,0.6934-1.6816,4.3677,0.6372,7.125,1.4487,7.2934,2.2954a1.06,1.06,0,0,1-.143.1479c-0.0049,0-.0049.0069-0.0093,0.0069a1.8219,1.8219,0,0,1-.1953.1435c-0.0068.0054-.0171,0.0117-0.023,0.0176a4.6774,4.6774,0,0,1-.5512.2744c-0.0171.0054-.0332,0.0117-0.0493,0.0176-0.1036.0473-.2188,0.0889-0.3384,0.13-0.0117.0058-.0279,0.0058-0.044,0.0122-0.1093.041-.2358,0.0781-0.3608,0.1191-0.0161.0068-.0371,0.0117-0.0557,0.0181-0.1343.042-.2768,0.0766-0.4243,0.12-0.0264.0044-.061,0.0176-0.0933,0.0234-0.1518.0415-.3056,0.0777-0.4741,0.1192a51.3863,51.3863,0,0,1-6.4609.96h-0.0645C353.0874,134.0171,353.519,133.0991,353.9067,132.2124Zm-34.5879,1.9717a0.0953,0.0953,0,0,1-.0483-0.0176c-4.3355-.68-7.66-1.519-7.8731-2.4434,0.5074-.7207,2.6094-1.3354,5.8252-1.7822C317.4087,130.3755,318.1406,132.0215,319.3188,134.1841Zm44.2793-2.1152c-0.0439-.7627-1.2895-1.4966-3.4306-2.1514a42.0952,42.0952,0,0,0-4.9229-1.1275,60.9391,60.9391,0,0,0,3.3472-20.4023s-1.3008-.8164-3.2988-2.1216-4.9414-3.1118-8.7027-5.0967c-1.8828-.9892-3.9746-2.0322-6.2568-3.0815-2.2764-1.043-4.7495-2.0986-7.398-3.1177-2.6528-1.0185-5.48-1.9966-8.4673-2.8965-2.9926-.8994-6.1425-1.71-9.44-2.3838q-1.4825,1.287-2.9643,2.5806s-0.1,1.0142-.148,2.8438c-0.0483,1.8349-.0435,4.4946.1641,7.7954,0.1089,1.6513.2617,3.4634,0.4907,5.4062,0.23,1.95.5234,4.023,0.9126,6.21,0.3872,2.1884.8682,4.4829,1.4575,6.86,0.54,2.1875,1.1792,4.4473,1.9155,6.7481a32.3414,32.3414,0,0,0-4.2426.9477c-1.8882.59-3.0079,1.2871-3.15,2.05a1.0374,1.0374,0,0,0-.1245.6319c0,0.0058,0,.0058.0063,0.0058,0,0.0054-.0063.0054,0,0.0122,0.0376,0.7691,1.2817,1.4956,3.2813,2.1519a50.1751,50.1751,0,0,0,7.4687,1.6445q0.5134,0.8854,1.103,1.8237a40.5114,40.5114,0,0,0,4.7491,6.2237,28.7225,28.7225,0,0,0,6.94,5.3159c1.3906-.1011,2.7842-0.2031,4.1689-0.2964A26.4867,26.4867,0,0,0,352.0058,136.05a54.5447,54.5447,0,0,0,7.9878-1.4429c1.84-.5244,3.042-1.1137,3.3907-1.7339h0A1.455,1.455,0,0,0,363.5981,132.0689Z" transform="translate(-309.1904 -89.5384)"/><path class="cls-3" d="M358.5918,108.3877s-1.3008-.8164-3.2988-2.1216-4.9414-3.1118-8.7027-5.0967c-1.8828-.9892-3.9746-2.0322-6.2568-3.0815-2.2764-1.043-4.7495-2.0967-7.3965-3.1177-2.6543-1.0185-5.4819-1.9966-8.4688-2.895-2.9916-.9019-6.1425-1.7119-9.44-2.3848,0,0-.1094,2.9849.0982,7.67,0.103,2.3492.2885,5.1143,0.6,8.1421,0.1586,1.52.3442,3.0933,0.5742,4.72,0.229,1.6226.4956,3.2847,0.8061,4.9717,0.3179,1.687.6719,3.3975,1.0884,5.1084,0.4087,1.7046.8726,3.4151,1.397,5.0962,0.5176,1.6856,1.102,3.3491,1.7466,4.97,0.644,1.6153,1.36,3.1895,2.1406,4.6978a35.32,35.32,0,0,0,5.6181,8.0576,25.079,25.079,0,0,0,7.959,5.52c9.7676-3.3379,14.229-10.42,16.85-16.4336a59.82,59.82,0,0,0,4.6851-23.8237" transform="translate(-309.1904 -89.5384)"/><path class="cls-4" d="M319.5923,125.3989c-0.5244-1.6811-.9893-3.3916-1.397-5.0952-0.4146-1.7114-.7705-3.4223-1.0864-5.1094-0.3125-1.687-.5791-3.3491-0.8091-4.97-0.229-1.6284-.4146-3.2011-0.5732-4.7207-0.3106-3.0288-.4971-5.7939-0.6-8.143-0.2076-4.6841-.0982-7.67-0.0982-7.67q-1.4825,1.2883-2.9643,2.5811s-0.1,1.0127-.148,2.8428c-0.0483,1.8354-.0435,4.4946.1641,7.7968,0.1089,1.6514.2617,3.4625,0.4907,5.4063,0.23,1.9482.5234,4.0234,0.9126,6.2095,0.3872,2.188.8672,4.4829,1.4565,6.8618,0.5855,2.3721,1.2827,4.8271,2.1089,7.3364,1.1626-.1543,2.33-0.3037,3.4986-0.458-0.3384-.9482-0.6607-1.9018-0.9551-2.8677" transform="translate(-309.1904 -89.5384)"/><path class="cls-5" d="M315.1265,97.3613c0.103,2.3477.29,5.1138,0.6,8.1416,0.1586,1.52.3442,3.0938,0.5742,4.7222,0.229,1.62.497,3.2832,0.8081,4.97,0.3159,1.6861.6718,3.397,1.0864,5.107,0.4077,1.705.8726,3.417,1.397,5.0966,0.5176,1.6871,1.102,3.35,1.7466,4.9722,0.644,1.6143,1.36,3.1885,2.14,4.6968a35.4017,35.4017,0,0,0,5.6191,8.0576,25.0452,25.0452,0,0,0,7.959,5.52c9.7676-3.3379,14.229-10.4179,16.85-16.4336a59.8123,59.8123,0,0,0,4.6851-23.8232s-1.3008-.8164-3.2988-2.1221-4.9414-3.1123-8.7027-5.0957c-1.8828-.99-3.9746-2.0332-6.2568-3.0825-2.2764-1.0425-4.7495-2.0981-7.398-3.1177-2.6528-1.02-5.48-1.9961-8.4687-2.8965-2.9912-.8989-6.1411-1.71-9.4385-2.3833,0,0-.1094,2.9869.0982,7.6709" transform="translate(-309.1904 -89.5384)"/><path class="cls-6" d="M315.0273,89.69c0.6455,0.6856,1.9444,2.0557,1.9444,2.0557,4.3027,7.57,17.5044,30.7451,17.5044,30.7451l23.312-13.6738c0.1909-.1431.6172-0.2866,0.8017-0.4292,0,0-2.0576-1.395-5.2617-3.4033-1.605-1.0078-3.56-2.1695-5.8042-3.4038-2.2436-1.2276-4.7881-2.5269-7.5659-3.7837-2.7852-1.2588-5.4658-2.3482-7.9956-3.2847-2.5269-.9355-4.9009-1.7226-7.0571-2.3725a94.2845,94.2845,0,0,0-9.878-2.45" transform="translate(-309.1904 -89.5384)"/><path class="cls-7" d="M315.0273,89.69c0.6455,0.6856,1.9444,2.0557,1.9444,2.0557,4.3027,7.57,17.5044,30.7451,17.5044,30.7451l23.312-13.6738c0.1909-.1431.6172-0.2866,0.8017-0.4292,0,0-2.0576-1.395-5.2617-3.4033-1.605-1.0078-3.56-2.1695-5.8042-3.4038-2.2436-1.2276-4.7881-2.5269-7.5659-3.7837-2.7852-1.2588-5.4658-2.3482-7.9956-3.2847-2.5269-.9355-4.9009-1.7226-7.0571-2.3725A94.2845,94.2845,0,0,0,315.0273,89.69Z" transform="translate(-309.1904 -89.5384)"/><path class="cls-4" d="M357.7881,108.8169s-0.0928,3.2065-.2461,4.9053c-0.1372,1.4907-.3428,3.2539-0.6651,5.1733s-0.7592,4.0064-1.3432,6.1519a49.5823,49.5823,0,0,1-2.2613,6.5146,37.115,37.115,0,0,1-3.4111,6.2652,27.49,27.49,0,0,1-4.8047,5.3935,26.233,26.233,0,0,1-6.9673,4.1133,35.3078,35.3078,0,0,1-14.3481-16.2959c-0.5947-1.4019-1.2495-2.8867-1.8281-4.5191-0.5845-1.6269-1.1309-3.3789-1.64-5.2685-0.5014-1.89-.9653-3.9155-1.376-6.08-0.4072-2.1631-.7626-4.4639-1.0522-6.9126q-0.4336-3.6847-.6621-7.8037-0.2271-4.1214-.2114-8.7075a118.3389,118.3389,0,0,1,40.8164,17.07" transform="translate(-309.1904 -89.5384)"/><path class="cls-8" d="M357.7881,108.8169s-0.0928,3.2065-.2461,4.9053c-0.1372,1.4907-.3428,3.2539-0.6651,5.1733s-0.7592,4.0064-1.3432,6.1519a49.5823,49.5823,0,0,1-2.2613,6.5146,37.115,37.115,0,0,1-3.4111,6.2652,27.49,27.49,0,0,1-4.8047,5.3935,26.233,26.233,0,0,1-6.9673,4.1133,35.3078,35.3078,0,0,1-14.3481-16.2959c-0.5947-1.4019-1.2495-2.8867-1.8281-4.5191-0.5845-1.6269-1.1309-3.3789-1.64-5.2685-0.5014-1.89-.9653-3.9155-1.376-6.08-0.4072-2.1631-.7626-4.4639-1.0522-6.9126q-0.4336-3.6847-.6621-7.8037-0.2271-4.1214-.2114-8.7075A118.3389,118.3389,0,0,1,357.7881,108.8169Z" transform="translate(-309.1904 -89.5384)"/><path class="cls-5" d="M337.6362,118.9966c-5.4922.2934-7.8345,3.01-8.833,4.644a14.2126,14.2126,0,0,0-1.6777,4.9175c-0.0323.2149-.0918,0.3994-0.1138,0.6143a6.5982,6.5982,0,0,0,.0772,2.5381,14.31,14.31,0,0,0,3.226,7.3623,8.75,8.75,0,0,0,5.6294,3.3315,13.31,13.31,0,0,0,2.6216.0542,12.7885,12.7885,0,0,0,1.7676-.28,22.6689,22.6689,0,0,0,3.99-1.4277v0.0034a0.22,0.22,0,0,0,.0186-0.0132,0.0189,0.0189,0,0,0,.01-0.0053,13.551,13.551,0,0,0,5.519-4.7383,9.8,9.8,0,0,0,1.519-6.4917,1.5828,1.5828,0,0,0-.1362-0.7388,10.0954,10.0954,0,0,0-1.4687-3.5166c-0.0752-.1133-0.1812-0.0425-0.2618-0.1553-0.0986-.1367-0.1748-0.4643-0.2793-0.601a13.34,13.34,0,0,0-2.9472-2.76,11.4957,11.4957,0,0,0-5.4224-2.4311,17.2213,17.2213,0,0,0-2.9233-.3116c-0.1094,0-.2129.0025-0.3145,0.0059" transform="translate(-309.1904 -89.5384)"/><path class="cls-3" d="M351.39,129.5054c-0.05-.4112-0.0161-1.585-0.6606.2925a55.5118,55.5118,0,0,0-7.9546-.06,71.7891,71.7891,0,0,0-7.3374.5776c-2.998.3877-5.3569,0.8711-6.53,1.1323-1.6865-2.4194-2.3691-3.6411-1.8178.2627a14.3034,14.3034,0,0,0,3.227,7.3614,8.7453,8.7453,0,0,0,5.627,3.3315,13.285,13.285,0,0,0,2.622.0537,12.6314,12.6314,0,0,0,1.7686-.28,22.6671,22.6671,0,0,0,3.9966-1.43c-0.0059,0-.0059,0-0.0059.0058,0.0059-.0058.0127-0.0058,0.0176-0.0117a0.0188,0.0188,0,0,0,.01-0.0054,13.5907,13.5907,0,0,0,5.52-4.7382,9.82,9.82,0,0,0,1.518-6.4922" transform="translate(-309.1904 -89.5384)"/><path class="cls-6" d="M328.9067,131.4492c1.1748-.2632,3.5323-0.7446,6.53-1.1323a71.6346,71.6346,0,0,1,7.3374-.5786,55.1071,55.1071,0,0,1,7.9546.06c0.2827-.8242.437-1.062,0.5234-1.0307a10.074,10.074,0,0,0-1.4668-3.5186c-0.0781-.1128-0.1821-0.041-0.2627-0.1543-0.0986-.1377-0.1748-0.4653-0.2783-0.602a13.3807,13.3807,0,0,0-2.9482-2.76,11.5206,11.5206,0,0,0-5.4214-2.4316,15.9251,15.9251,0,0,0-3.2373-.3037c-5.4937.292-7.836,3.01-8.8345,4.643a14.2329,14.2329,0,0,0-1.6777,4.918c-0.0308.2139-.0908,0.3994-0.1123,0.6133,0.2671-.125.9336,0.9,1.8935,2.2773" transform="translate(-309.1904 -89.5384)"/><path class="cls-7" d="M328.9067,131.4492c1.1748-.2632,3.5323-0.7446,6.53-1.1323a71.6346,71.6346,0,0,1,7.3374-.5786,55.1071,55.1071,0,0,1,7.9546.06c0.2827-.8242.437-1.062,0.5234-1.0307a10.074,10.074,0,0,0-1.4668-3.5186c-0.0781-.1128-0.1821-0.041-0.2627-0.1543-0.0986-.1377-0.1748-0.4653-0.2783-0.602a13.3807,13.3807,0,0,0-2.9482-2.76,11.5206,11.5206,0,0,0-5.4214-2.4316,15.9251,15.9251,0,0,0-3.2373-.3037c-5.4937.292-7.836,3.01-8.8345,4.643a14.2329,14.2329,0,0,0-1.6777,4.918c-0.0308.2139-.0908,0.3994-0.1123,0.6133C327.28,129.0469,327.9468,130.0718,328.9067,131.4492Z" transform="translate(-309.1904 -89.5384)"/><path class="cls-6" d="M348.8237,132.5571a3.0657,3.0657,0,0,1-.1323.7754,12.4484,12.4484,0,0,1-4.8423,4.6006,9.9282,9.9282,0,0,1-6.9878.4121c-2.6211-.6147-4.8047-2.7832-6.4546-4.8584a29.4093,29.4093,0,0,1,5.5157-1.43,65.1781,65.1781,0,0,1,6.9394-.769c1.62-.1,3.1284-0.1489,4.3789-0.1738a1.5582,1.5582,0,0,1,1.2725.4594,2.2043,2.2043,0,0,1,.31.9834" transform="translate(-309.1904 -89.5384)"/><path class="cls-7" d="M348.8237,132.5571a3.0657,3.0657,0,0,1-.1323.7754,12.4484,12.4484,0,0,1-4.8423,4.6006,9.9282,9.9282,0,0,1-6.9878.4121c-2.6211-.6147-4.8047-2.7832-6.4546-4.8584a29.4093,29.4093,0,0,1,5.5157-1.43,65.1781,65.1781,0,0,1,6.9394-.769c1.62-.1,3.1284-0.1489,4.3789-0.1738a1.5582,1.5582,0,0,1,1.2725.4594A2.2043,2.2043,0,0,1,348.8237,132.5571Z" transform="translate(-309.1904 -89.5384)"/><path class="cls-4" d="M346.5849,125.4287a10.6994,10.6994,0,0,1-1.2055-.394,36.2318,36.2318,0,0,1-6.7212-3.6895c-3.0947-2.0918-5.2256-1.8535-6.0767-1.6094l-0.3549.0249a0.9943,0.9943,0,0,0-.7647.47,2.238,2.238,0,0,0-.1865.333,0.6411,0.6411,0,0,0-.0264.1206l0.3545-.107c0.2183-.1137.5669-0.1914,0.7432-0.2744a7.4339,7.4339,0,0,1,4.9135,1.1914,77.9857,77.9857,0,0,0,6.856,3.9756,10.0105,10.0105,0,0,0,3.7471.96l-1.2784-1.0015" transform="translate(-309.1904 -89.5384)"/><path class="cls-8" d="M346.5849,125.4287a10.6994,10.6994,0,0,1-1.2055-.394,36.2318,36.2318,0,0,1-6.7212-3.6895c-3.0947-2.0918-5.2256-1.8535-6.0767-1.6094l-0.3549.0249a0.9943,0.9943,0,0,0-.7647.47,2.238,2.238,0,0,0-.1865.333,0.6411,0.6411,0,0,0-.0264.1206l0.3545-.107c0.2183-.1137.5669-0.1914,0.7432-0.2744a7.4339,7.4339,0,0,1,4.9135,1.1914,77.9857,77.9857,0,0,0,6.856,3.9756,10.0105,10.0105,0,0,0,3.7471.96Z" transform="translate(-309.1904 -89.5384)"/><path class="cls-4" d="M349.4956,124.9878c0.0049,0.0059.0161,0.0112,0.022,0.0176l0.0312-.2735-0.1523-.56-0.0938.3623a1.1133,1.1133,0,0,1-.9487,1.0381,10.3907,10.3907,0,0,0-5.65-5.6265,14.815,14.815,0,0,0-5.2422-1.2812,12.5477,12.5477,0,0,1,2.0093.4292,13.2768,13.2768,0,0,1,5.5517,3.0927,12.068,12.068,0,0,1,2.84,4.2442,1.4235,1.4235,0,0,0,1.6333-1.4424" transform="translate(-309.1904 -89.5384)"/><path class="cls-8" d="M349.4956,124.9878c0.0049,0.0059.0161,0.0112,0.022,0.0176l0.0312-.2735-0.1523-.56-0.0938.3623a1.1133,1.1133,0,0,1-.9487,1.0381,10.3907,10.3907,0,0,0-5.65-5.6265,14.815,14.815,0,0,0-5.2422-1.2812,12.5477,12.5477,0,0,1,2.0093.4292,13.2768,13.2768,0,0,1,5.5517,3.0927,12.068,12.068,0,0,1,2.84,4.2442A1.4235,1.4235,0,0,0,349.4956,124.9878Z" transform="translate(-309.1904 -89.5384)"/><path class="cls-4" d="M349.0151,132.5513c-0.2187-.2378-0.4433-0.4824-0.6655-0.7207a14.4472,14.4472,0,0,1-.9248,4.0464,9.7294,9.7294,0,0,1-5.1367,5.7045,8.8049,8.8049,0,0,1-2.2217.7984,10.4091,10.4091,0,0,0,7.124-4.5708,12.493,12.493,0,0,0,1.7808-4.8291c0.02-.1421.0439-0.2847,0.06-0.4287h-0.0161" transform="translate(-309.1904 -89.5384)"/><path class="cls-8" d="M349.0151,132.5513c-0.2187-.2378-0.4433-0.4824-0.6655-0.7207a14.4472,14.4472,0,0,1-.9248,4.0464,9.7294,9.7294,0,0,1-5.1367,5.7045,8.8049,8.8049,0,0,1-2.2217.7984,10.4091,10.4091,0,0,0,7.124-4.5708,12.493,12.493,0,0,0,1.7808-4.8291c0.02-.1421.0439-0.2847,0.06-0.4287h-0.0161Z" transform="translate(-309.1904 -89.5384)"/><path class="cls-4" d="M349.13,131.377a18.4388,18.4388,0,0,0-.2681-3.9278c-0.0332-.2026-0.07-0.3994-0.1162-0.59-0.2949-.1421-0.5894-0.2861-0.8833-0.4287a27.1422,27.1422,0,0,1,.5024,5.37c-0.2612-.1367-0.5234-0.273-0.7856-0.417v-0.0361a6.7711,6.7711,0,0,0-4.45,1.83,13.8368,13.8368,0,0,1-5.1646,3.2725,26.44,26.44,0,0,1-9.5664.8691c0.4869,0.5318.9722,1.0328,1.4576,1.5562,0,0,.0947,0,0.28-0.0176l0.273-.8105a22.4157,22.4157,0,0,0,7.0928-.668c2.5756-.6313,4.0942-1.9961,5.9892-3.5522a6.9354,6.9354,0,0,1,4.8594-1.9961,2.3651,2.3651,0,0,1,2.292.768c0.0273,0.0537.0552,0.107,0.0771,0.1616,0.0044,0.0171.01,0.0347,0.0162,0.0528,0.0146,0.0425.0278,0.0776,0.0375,0.1128l0.0162,0.0722c0.0073,0.0352.0161,0.0713,0.0219,0.107,0,0.0239.0059,0.0483,0.0059,0.0654a0.8936,0.8936,0,0,1,.01.12,0.215,0.215,0,0,0,.0059.0606v0.1723c-0.0059.0474-.0059,0.0948-0.0107,0.1358v0.0366c-0.0054.0483-.0113,0.1016-0.0171,0.1494,0,0.0059-.0044.0117-0.0044,0.0181-0.0044.0527-.0171,0.1069-0.0215,0.1538a3.4669,3.4669,0,0,1-.11.5557l-0.4912,1.6084a6.3139,6.3139,0,0,0,.7031-1.4727,7.3733,7.3733,0,0,0,.2749-1.68c0.0264-.603-0.2631-1.4433-2.0258-1.6518" transform="translate(-309.1904 -89.5384)"/><path class="cls-8" d="M349.13,131.377a18.4388,18.4388,0,0,0-.2681-3.9278c-0.0332-.2026-0.07-0.3994-0.1162-0.59-0.2949-.1421-0.5894-0.2861-0.8833-0.4287a27.1422,27.1422,0,0,1,.5024,5.37c-0.2612-.1367-0.5234-0.273-0.7856-0.417v-0.0361a6.7711,6.7711,0,0,0-4.45,1.83,13.8368,13.8368,0,0,1-5.1646,3.2725,26.44,26.44,0,0,1-9.5664.8691c0.4869,0.5318.9722,1.0328,1.4576,1.5562,0,0,.0947,0,0.28-0.0176l0.273-.8105a22.4157,22.4157,0,0,0,7.0928-.668c2.5756-.6313,4.0942-1.9961,5.9892-3.5522a6.9354,6.9354,0,0,1,4.8594-1.9961,2.3651,2.3651,0,0,1,2.292.768c0.0273,0.0537.0552,0.107,0.0771,0.1616,0.0044,0.0171.01,0.0347,0.0162,0.0528,0.0146,0.0425.0278,0.0776,0.0375,0.1128l0.0162,0.0722c0.0073,0.0352.0161,0.0713,0.0219,0.107,0,0.0239.0059,0.0483,0.0059,0.0654a0.8936,0.8936,0,0,1,.01.12,0.215,0.215,0,0,0,.0059.0606v0.1723c-0.0059.0474-.0059,0.0948-0.0107,0.1358v0.0366c-0.0054.0483-.0113,0.1016-0.0171,0.1494,0,0.0059-.0044.0117-0.0044,0.0181-0.0044.0527-.0171,0.1069-0.0215,0.1538a3.4669,3.4669,0,0,1-.11.5557l-0.4912,1.6084a6.3139,6.3139,0,0,0,.7031-1.4727,7.3733,7.3733,0,0,0,.2749-1.68C351.1821,132.4258,350.8926,131.5855,349.13,131.377Z" transform="translate(-309.1904 -89.5384)"/><path class="cls-4" d="M349.13,131.377a18.4388,18.4388,0,0,0-.2681-3.9278,8.5012,8.5012,0,0,0-.2026-0.9468,1.7638,1.7638,0,0,0,.8525-1.4726l0.0381-.2979-0.1533-.56-0.0928.3638a1.1171,1.1171,0,0,1-.95,1.0366,10.3923,10.3923,0,0,0-5.65-5.6265,14.8251,14.8251,0,0,0-5.2422-1.2822,13.3274,13.3274,0,0,1,4.5381,1.5972,11.0428,11.0428,0,0,1,5.11,5.2822,9.21,9.21,0,0,1-1.7315-.5069,36.28,36.28,0,0,1-6.72-3.69c-3.0957-2.0923-5.2256-1.8535-6.0767-1.6089l-0.3559.023a0.9965,0.9965,0,0,0-.7647.4712,2.2005,2.2005,0,0,0-.1845.3335,2.008,2.008,0,0,0-.0757.2446l1.6753-.315a7.5629,7.5629,0,0,1,2.9033.7037c1.5845,0.7026,3.2988,1.9067,6.0771,3.5161,2.73,1.5732,4.4893,2.0732,5.6187,2.0615a8.17,8.17,0,0,1,.1748,1.353,27.6253,27.6253,0,0,1,0,3.2124,6.8166,6.8166,0,0,0-4.521,1.8369,13.8368,13.8368,0,0,1-5.1646,3.2725,26.44,26.44,0,0,1-9.5664.8691c0.4869,0.5318.9722,1.0328,1.4576,1.5562a64.7862,64.7862,0,0,0,7.3437-1.061,12.3836,12.3836,0,0,0,5.9077-3.2486,8.4774,8.4774,0,0,1,4.4722-2.3535,15.7463,15.7463,0,0,1-1.125,4.6367,9.4192,9.4192,0,0,1-3.4346,4.2617,9.0291,9.0291,0,0,1-2.9531,1.27,10.4129,10.4129,0,0,0,7.125-4.5718,12.4984,12.4984,0,0,0,1.78-4.8276c0.02-.1426.0439-0.2867,0.06-0.4292h-0.0161c0.0161-.1016.0323-0.1675,0.0376-0.2159,0.0044-.0405.0108-0.0766,0.0171-0.1128,0.0044,0,.01,0,0.01.0069l0.0063-.0069s1.2056-.226,1.5557.376a2.193,2.193,0,0,1,.1372,1.418,3.4669,3.4669,0,0,1-.11.5557l-0.4912,1.6084a6.3139,6.3139,0,0,0,.7031-1.4727,7.3733,7.3733,0,0,0,.2749-1.68c0.0264-.603-0.2631-1.4433-2.0258-1.6518" transform="translate(-309.1904 -89.5384)"/><path class="cls-1" d="M348.3486,131.8306a14.3631,14.3631,0,0,1-.9238,4.0464,9.6264,9.6264,0,0,1-5.3984,5.7822,8.0588,8.0588,0,0,0,2.3793-1.9966,14.1172,14.1172,0,0,0,3.09-7.5693c0.2856-.0913.5683-0.1787,0.8525-0.2627" transform="translate(-309.1904 -89.5384)"/><path class="cls-1" d="M348.3486,131.8306c-0.147.2085-.3,0.4223-0.4477,0.6367a5.5415,5.5415,0,0,0-3.7735,1.6279c-2.7729,2.438-4.1211,3.541-6.0713,4.0474a26.2089,26.2089,0,0,1-7.9262.727l0.2768-.8222a22.4251,22.4251,0,0,0,7.0928-.6685c2.5786-.6308,4.0947-1.9966,5.99-3.5517a6.9407,6.9407,0,0,1,4.8594-1.9966" transform="translate(-309.1904 -89.5384)"/><path class="cls-1" d="M350.5815,134.7271a2.9713,2.9713,0,0,0,.06-2.1285,2.2624,2.2624,0,0,0-2.2319-.7744c0.2221,0.2378.3867,0.4878,0.6054,0.7271,0,0,2.37-.333,1.5664,2.1758" transform="translate(-309.1904 -89.5384)"/><path class="cls-1" d="M348.3594,131.7583c-0.2627-.1362-0.5181-0.2314-0.78-0.3755a29.2917,29.2917,0,0,0-.4048-4.8633c0.2847-.0053.3989-0.0893,0.688-0.0893a27.1986,27.1986,0,0,1,.4971,5.3281" transform="translate(-309.1904 -89.5384)"/><path class="cls-1" d="M348.8076,126.8657c-0.3174-.15-0.5684-0.2812-0.8862-0.43a1.3888,1.3888,0,0,0,1.5742-1.4492c0.0757,0.0669.1518,0.1265,0.228,0.1914a1.2564,1.2564,0,0,1-.916,1.6875" transform="translate(-309.1904 -89.5384)"/><path class="cls-1" d="M347.8413,126.3525a11.9109,11.9109,0,0,0-2.8189-4.1655,13.1286,13.1286,0,0,0-6.25-3.2554,5.6615,5.6615,0,0,0-.7754-0.0527s5.1206,0.148,8.5883,6.55c0.4253,0.333.83,0.59,1.2564,0.9233" transform="translate(-309.1904 -89.5384)"/><path class="cls-1" d="M347.8623,126.43a10.0062,10.0062,0,0,1-3.7451-.959,77.3777,77.3777,0,0,1-6.8579-3.9766,7.4333,7.4333,0,0,0-4.9126-1.1919c-0.1953.0953-.6719,0.3872-0.87,0.4776a4.8719,4.8719,0,0,1,1.8843-.0308,9.5887,9.5887,0,0,1,4.45,1.6987c1.8565,1.1094,3.9136,2.4034,5.6875,3.2242a10.7327,10.7327,0,0,0,3.7578,1.2114c0.2022-.1558.4029-0.3042,0.6055-0.4536" transform="translate(-309.1904 -89.5384)"/><path class="cls-8" d="M351.39,129.5054a1.6211,1.6211,0,0,0-.1362-0.74,10.0958,10.0958,0,0,0-1.47-3.5161c-0.0752-.1133-0.18-0.0415-0.2617-0.1548-0.0987-.1362-0.1739-0.4648-0.2793-0.6015a13.2906,13.2906,0,0,0-2.9478-2.76,11.512,11.512,0,0,0-5.4209-2.4321,16.0247,16.0247,0,0,0-3.2378-.3032c-5.4922.292-7.8345,3.01-8.833,4.6421a14.22,14.22,0,0,0-1.6763,4.9179c-0.0337.2144-.0932,0.3994-0.1137,0.6133a6.5121,6.5121,0,0,0,.0757,2.54,14.3034,14.3034,0,0,0,3.227,7.3614,8.7453,8.7453,0,0,0,5.627,3.3315,13.285,13.285,0,0,0,2.622.0537,12.6314,12.6314,0,0,0,1.7686-.28,22.6671,22.6671,0,0,0,3.9966-1.43c-0.0059,0-.0059,0-0.0059.0058,0.0059-.0058.0127-0.0058,0.0176-0.0117a0.0188,0.0188,0,0,0,.01-0.0054,13.5907,13.5907,0,0,0,5.52-4.7382A9.82,9.82,0,0,0,351.39,129.5054Z" transform="translate(-309.1904 -89.5384)"/><path class="cls-4" d="M321.0117,129.5474a39.7534,39.7534,0,0,0,4.6528,8.53,40.5535,40.5535,0,0,0,5.17,5.9306,31.5,31.5,0,0,0,6.2242,4.6372c-1.3872.0943-2.7808,0.1968-4.1714,0.2969a28.6783,28.6783,0,0,1-6.9414-5.3164,40.5117,40.5117,0,0,1-4.7481-6.2227,59.3634,59.3634,0,0,1-4.0239-7.5747l3.7783-.5786" transform="translate(-309.1904 -89.5384)"/><path class="cls-5" d="M315.1265,97.3613c0.103,2.3477.29,5.1138,0.6,8.1416,0.1586,1.52.3442,3.0938,0.5742,4.7222,0.229,1.62.497,3.2832,0.8081,4.97,0.3159,1.6861.6718,3.397,1.0864,5.107,0.4077,1.705.8726,3.417,1.397,5.0966,0.5176,1.6871,1.102,3.35,1.7466,4.9722,0.644,1.6143,1.36,3.1885,2.14,4.6968a35.4017,35.4017,0,0,0,5.6191,8.0576,25.0452,25.0452,0,0,0,7.959,5.52c9.7676-3.3379,14.229-10.4179,16.85-16.4336a59.8123,59.8123,0,0,0,4.6851-23.8232s-1.3008-.8164-3.2988-2.1221-4.9414-3.1123-8.7027-5.0957c-1.8828-.99-3.9746-2.0332-6.2568-3.0825-2.2764-1.0425-4.7495-2.0981-7.398-3.1177-2.6528-1.02-5.48-1.9961-8.4687-2.8965-2.9912-.8989-6.1411-1.71-9.4385-2.3833,0,0-.1094,2.9869.0982,7.6709" transform="translate(-309.1904 -89.5384)"/><path class="cls-4" d="M319.5923,125.3989c-0.5244-1.6811-.9893-3.3916-1.397-5.0952-0.4146-1.7114-.7705-3.4223-1.0864-5.1094-0.3125-1.687-.5791-3.3491-0.8091-4.97-0.229-1.6284-.4146-3.2011-0.5732-4.7207-0.3106-3.0288-.4971-5.7939-0.6-8.143-0.2076-4.6841-.0982-7.67-0.0982-7.67q-1.4825,1.2883-2.9643,2.5811s-0.1,1.0127-.148,2.8428c-0.0483,1.8354-.0435,4.4946.1641,7.7968,0.1089,1.6514.2617,3.4625,0.4907,5.4063,0.23,1.9482.5234,4.0234,0.9126,6.2095,0.3872,2.188.8672,4.4829,1.4565,6.8618,0.5855,2.3721,1.2827,4.8271,2.1089,7.3364,1.1626-.1543,2.33-0.3037,3.4986-0.458-0.3384-.9482-0.6607-1.9018-0.9551-2.8677" transform="translate(-309.1904 -89.5384)"/><path class="cls-8" d="M319.5923,125.3989c-0.5244-1.6811-.9893-3.3916-1.397-5.0952-0.4146-1.7114-.7705-3.4223-1.0864-5.1094-0.3125-1.687-.5791-3.3491-0.8091-4.97-0.229-1.6284-.4146-3.2011-0.5732-4.7207-0.3106-3.0288-.4971-5.7939-0.6-8.143-0.2076-4.6841-.0982-7.67-0.0982-7.67q-1.4825,1.2883-2.9643,2.5811s-0.1,1.0127-.148,2.8428c-0.0483,1.8354-.0435,4.4946.1641,7.7968,0.1089,1.6514.2617,3.4625,0.4907,5.4063,0.23,1.9482.5234,4.0234,0.9126,6.2095,0.3872,2.188.8672,4.4829,1.4565,6.8618,0.5855,2.3721,1.2827,4.8271,2.1089,7.3364,1.1626-.1543,2.33-0.3037,3.4986-0.458C320.209,127.3184,319.8867,126.3648,319.5923,125.3989Z" transform="translate(-309.1904 -89.5384)"/><path class="cls-4" d="M317.1743,129.8281a59.5294,59.5294,0,0,0,4.022,7.5757,40.7175,40.7175,0,0,0,4.751,6.2227,28.7241,28.7241,0,0,0,6.9389,5.3154c1.3921-.1011,2.7857-0.2017,4.1714-0.2969a31.5476,31.5476,0,0,1-6.2241-4.6367,40.6676,40.6676,0,0,1-5.169-5.9311,39.8188,39.8188,0,0,1-4.6528-8.53c-1.2056.1611-2.6318,0.1191-3.8374,0.2807" transform="translate(-309.1904 -89.5384)"/><path class="cls-8" d="M317.1743,129.8281a59.5294,59.5294,0,0,0,4.022,7.5757,40.7175,40.7175,0,0,0,4.751,6.2227,28.7241,28.7241,0,0,0,6.9389,5.3154c1.3921-.1011,2.7857-0.2017,4.1714-0.2969a31.5476,31.5476,0,0,1-6.2241-4.6367,40.6676,40.6676,0,0,1-5.169-5.9311,39.8188,39.8188,0,0,1-4.6528-8.53C319.8061,129.7085,318.38,129.6665,317.1743,129.8281Z" transform="translate(-309.1904 -89.5384)"/><path class="cls-9" d="M330.1557,97.3247l-4.1538-1.31,0.8028,10.4541c-0.8413-2.3594-3.3189-11.169-3.3189-11.169l-4.0893-1.0444s-0.5957,16.8618,4.8642,31.7036c0,0,2.336-3.0449,3.4331-4.2666,0,0-1.7465-6.11-2.5009-10.1563,0.9516,2.1626,3.6469,9.0655,3.6469,9.0655l3.2549-1.6929c-1.4795-10.7173-1.939-21.5835-1.939-21.5835" transform="translate(-309.1904 -89.5384)"/><path class="cls-10" d="M330.1557,97.3247l-4.1538-1.31,0.8028,10.4541c-0.8413-2.3594-3.3189-11.169-3.3189-11.169l-4.0893-1.0444s-0.5957,16.8618,4.8642,31.7036c0,0,2.336-3.0449,3.4331-4.2666,0,0-1.7465-6.11-2.5009-10.1563,0.9516,2.1626,3.6469,9.0655,3.6469,9.0655l3.2549-1.6929C330.6152,108.1909,330.1557,97.3247,330.1557,97.3247Z" transform="translate(-309.1904 -89.5384)"/><path class="cls-9" d="M348.3218,105.1035s-3.44-1.89-9.1944-4.4106l-0.0273,1.352-0.7871-1.6855c-1.9273-.8164-6.6924-2.5269-6.6924-2.5269-0.1978,8.2256,1.7524,20.5269,1.7524,20.5269a16.8448,16.8448,0,0,1,7.3492-.8579l-0.2466-3.91s-2.4732-.1675-3.5928-0.2163l-0.3232-2.9863c0.498,0.0786,2.7094.37,2.7094,0.37l-0.3164-3.4312-2.7358-.8716-0.18-2.9794c0.72,0.2744,4.0293,1.4589,5.7041,2.246l0.1812,12.1a17.1178,17.1178,0,0,1,3.8061,1.586l-0.0664-11.8257,2.6426,1.1733" transform="translate(-309.1904 -89.5384)"/><path class="cls-10" d="M348.3218,105.1035s-3.44-1.89-9.1944-4.4106l-0.0273,1.352-0.7871-1.6855c-1.9273-.8164-6.6924-2.5269-6.6924-2.5269-0.1978,8.2256,1.7524,20.5269,1.7524,20.5269a16.8448,16.8448,0,0,1,7.3492-.8579l-0.2466-3.91s-2.4732-.1675-3.5928-0.2163l-0.3232-2.9863c0.498,0.0786,2.7094.37,2.7094,0.37l-0.3164-3.4312-2.7358-.8716-0.18-2.9794c0.72,0.2744,4.0293,1.4589,5.7041,2.246l0.1812,12.1a17.1178,17.1178,0,0,1,3.8061,1.586l-0.0664-11.8257,2.6426,1.1733Z" transform="translate(-309.1904 -89.5384)"/><path class="cls-9" d="M348.168,107.9761c-0.0264.8227-.0967,2.6108-0.0713,2.8618a13.1734,13.1734,0,0,0,1.3071,4.69,9.1255,9.1255,0,0,1,1.1269,3.1661,29.8338,29.8338,0,0,0-3.7387-3.2481l-0.0161,4.5762c0.0493,0.0429,4.3466,3.4638,5.87,7.8794,0,0,1.8442-2.5625,1.78-8.2671-0.0332-2.3775-1.2285-4.5054-2.0591-6.4541a4.5547,4.5547,0,0,1-.436-2.2759c0.6762,0.47,3.6035,2.64,3.6035,2.64l0.2622-3.9218s-3.7568-2.4912-5.6836-3.51" transform="translate(-309.1904 -89.5384)"/><path class="cls-10" d="M348.168,107.9761c-0.0264.8227-.0967,2.6108-0.0713,2.8618a13.1734,13.1734,0,0,0,1.3071,4.69,9.1255,9.1255,0,0,1,1.1269,3.1661,29.8338,29.8338,0,0,0-3.7387-3.2481l-0.0161,4.5762c0.0493,0.0429,4.3466,3.4638,5.87,7.8794,0,0,1.8442-2.5625,1.78-8.2671-0.0332-2.3775-1.2285-4.5054-2.0591-6.4541a4.5547,4.5547,0,0,1-.436-2.2759c0.6762,0.47,3.6035,2.64,3.6035,2.64l0.2622-3.9218s-3.7568-2.4912-5.6836-3.51Z" transform="translate(-309.1904 -89.5384)"/><path class="cls-5" d="M315.1265,97.3613c0.103,2.3477.29,5.1138,0.6,8.1416,0.1586,1.52.3442,3.0938,0.5742,4.7222,0.229,1.62.497,3.2832,0.8081,4.97,0.3159,1.6861.6718,3.397,1.0864,5.107,0.4077,1.705.8726,3.417,1.397,5.0966,0.5176,1.6871,1.102,3.35,1.7466,4.9722,0.644,1.6143,1.36,3.1885,2.14,4.6968a35.4017,35.4017,0,0,0,5.6191,8.0576,25.0452,25.0452,0,0,0,7.959,5.52c9.7676-3.3379,14.229-10.4179,16.85-16.4336a59.8123,59.8123,0,0,0,4.6851-23.8232s-1.3008-.8164-3.2988-2.1221-4.9414-3.1123-8.7027-5.0957c-1.8828-.99-3.9746-2.0332-6.2568-3.0825-2.2764-1.0425-4.7495-2.0981-7.398-3.1177-2.6528-1.02-5.48-1.9961-8.4687-2.8965-2.9912-.8989-6.1411-1.71-9.4385-2.3833,0,0-.1094,2.9869.0982,7.6709" transform="translate(-309.1904 -89.5384)"/><path class="cls-11" d="M360.0591,130.3106a56.2167,56.2167,0,0,0-8.8389-1.7051c-2.1675-.2744-4.543-0.5127-7.0767-0.6914-2.5312-.1787-5.2182-0.31-7.998-0.37-2.7842-.0585-5.4692-0.0468-7.9868.03-2.522.0777-4.8814,0.2276-7.02,0.43a45.21,45.21,0,0,0-8.6333,1.5078c-2.064.6489-3.21,1.4185-3.1617,2.2715,0.0391,0.7681,1.2832,1.4951,3.2828,2.1509a52.0407,52.0407,0,0,0,7.8613,1.7051c-0.05-.1612-0.0982-0.3277-0.1524-0.4893,0.0367,0,.0542,0,0.043-0.0176-0.0278-.041-0.061-0.1074-0.103-0.185-0.0225-.0659-0.0445-0.1367-0.0664-0.2022-0.0161-.0063-0.0323-0.0063-0.0528-0.0122-0.1059-.1909-0.22-0.3989-0.2739-0.4946-0.0332-.0527-0.5786-0.0122-0.6133-0.0708-4.334-.68-7.6587-1.52-7.8716-2.4448,0.6827-.9717,4.27-1.7456,9.56-2.1875,2.1509-.1729,4.5811-0.2979,7.211-0.357,2.6279-.0605,5.4614-0.0605,8.4086.0059,2.8018,0.0654,5.4917.1836,8.0157,0.3511,2.5176,0.1616,4.8584.37,6.956,0.602,6.1133,0.686,10.1377,1.6572,10.3452,2.6885a5.5537,5.5537,0,0,1-2.7617,1.1509,51.327,51.327,0,0,1-6.4609.9585h-0.06c-0.0849.1679-.1792,0.3349-0.2651,0.5014-0.1167.208-.2246,0.4107-0.34,0.6138a54.5,54.5,0,0,0,7.9878-1.4424c2.2447-.6387,3.5435-1.3711,3.4952-2.1509-0.045-.7636-1.29-1.4912-3.43-2.1464" transform="translate(-309.1904 -89.5384)"/><path class="cls-8" d="M360.0591,130.3106a56.2167,56.2167,0,0,0-8.8389-1.7051c-2.1675-.2744-4.543-0.5127-7.0767-0.6914-2.5312-.1787-5.2182-0.31-7.998-0.37-2.7842-.0585-5.4692-0.0468-7.9868.03-2.522.0777-4.8814,0.2276-7.02,0.43a45.21,45.21,0,0,0-8.6333,1.5078c-2.064.6489-3.21,1.4185-3.1617,2.2715,0.0391,0.7681,1.2832,1.4951,3.2828,2.1509a52.0407,52.0407,0,0,0,7.8613,1.7051c-0.05-.1612-0.0982-0.3277-0.1524-0.4893,0.0367,0,.0542,0,0.043-0.0176-0.0278-.041-0.061-0.1074-0.103-0.185-0.0225-.0659-0.0445-0.1367-0.0664-0.2022-0.0161-.0063-0.0323-0.0063-0.0528-0.0122-0.1059-.1909-0.22-0.3989-0.2739-0.4946-0.0332-.0527-0.5786-0.0122-0.6133-0.0708-4.334-.68-7.6587-1.52-7.8716-2.4448,0.6827-.9717,4.27-1.7456,9.56-2.1875,2.1509-.1729,4.5811-0.2979,7.211-0.357,2.6279-.0605,5.4614-0.0605,8.4086.0059,2.8018,0.0654,5.4917.1836,8.0157,0.3511,2.5176,0.1616,4.8584.37,6.956,0.602,6.1133,0.686,10.1377,1.6572,10.3452,2.6885a5.5537,5.5537,0,0,1-2.7617,1.1509,51.327,51.327,0,0,1-6.4609.9585h-0.06c-0.0849.1679-.1792,0.3349-0.2651,0.5014-0.1167.208-.2246,0.4107-0.34,0.6138a54.5,54.5,0,0,0,7.9878-1.4424c2.2447-.6387,3.5435-1.3711,3.4952-2.1509C363.4438,131.6934,362.1992,130.9658,360.0591,130.3106Z" transform="translate(-309.1904 -89.5384)"/><path class="cls-1" d="M360.1684,129.917a56.3155,56.3155,0,0,0-8.8388-1.7109c-2.1675-.28-4.542-0.5127-7.0757-0.6968-2.5332-.1856-5.2183-0.3106-7.999-0.376-2.7842-.0591-5.4707-0.0532-7.9878.0244-2.521.0781-4.88,0.2207-7.02,0.4234a45.3241,45.3241,0,0,0-8.6319,1.5c-2.0639.6446-3.2094,1.42-3.1674,2.2657,0.0439,0.7632,1.2343,1.4907,3.1845,2.14a48.146,48.146,0,0,0,7.1953,1.6157c-0.18-.3217-0.3935-0.6328-0.5566-0.9365-4.478-.7036-7.8784-1.5786-7.8848-2.5332-0.0053-1.1318,3.7842-2.0391,9.6817-2.521,2.15-.1733,4.5791-0.2983,7.2109-0.352,2.627-.06,5.46-0.06,8.4077.0127,2.8008,0.0649,5.4927.1909,8.0156,0.3569,2.5157,0.1616,4.8584.37,6.9541,0.6084,6.28,0.7085,10.3526,1.7173,10.3594,2.7778,0.0049,0.5371-1.0444,1.0308-2.8843,1.46a51.4414,51.4414,0,0,1-6.4575.9585c-0.1211.227-.3017,0.4541-0.4282,0.68a52.3659,52.3659,0,0,0,7.9351-1.4243c2.205-.625,3.4663-1.3476,3.4179-2.122-0.0449-.7627-1.2881-1.4957-3.43-2.1519" transform="translate(-309.1904 -89.5384)"/><path class="cls-11" d="M360.0591,130.3106a56.2167,56.2167,0,0,0-8.8389-1.7051c-2.1675-.2744-4.543-0.5127-7.0767-0.6914-2.5312-.1787-5.2182-0.31-7.998-0.37-2.7842-.0585-5.4692-0.0468-7.9868.03-2.522.0777-4.8814,0.2276-7.02,0.43a45.21,45.21,0,0,0-8.6333,1.5078c-2.064.6489-3.21,1.4185-3.1617,2.2715,0.0391,0.7681,1.2832,1.4951,3.2828,2.1509a52.0407,52.0407,0,0,0,7.8613,1.7051c-0.05-.1612-0.0982-0.3277-0.1524-0.4893,0.0367,0,.0542,0,0.043-0.0176-0.0278-.041-0.061-0.1074-0.103-0.185-0.0225-.0659-0.0445-0.1367-0.0664-0.2022-0.0161-.0063-0.0323-0.0063-0.0528-0.0122-0.1059-.1909-0.22-0.3989-0.2739-0.4946-0.0332-.0527-0.5786-0.0122-0.6133-0.0708-4.334-.68-7.6587-1.52-7.8716-2.4448,0.6827-.9717,4.27-1.7456,9.56-2.1875,2.1509-.1729,4.5811-0.2979,7.211-0.357,2.6279-.0605,5.4614-0.0605,8.4086.0059,2.8018,0.0654,5.4917.1836,8.0157,0.3511,2.5176,0.1616,4.8584.37,6.956,0.602,6.1133,0.686,10.1377,1.6572,10.3452,2.6885a5.5537,5.5537,0,0,1-2.7617,1.1509,51.327,51.327,0,0,1-6.4609.9585h-0.06c-0.0849.1679-.1792,0.3349-0.2651,0.5014-0.1167.208-.2246,0.4107-0.34,0.6138a54.5,54.5,0,0,0,7.9878-1.4424c2.2447-.6387,3.5435-1.3711,3.4952-2.1509-0.045-.7636-1.29-1.4912-3.43-2.1464" transform="translate(-309.1904 -89.5384)"/><path class="cls-5" d="M328.1587,127.5747c-2.522.0776-4.8814,0.2261-7.02,0.4287a45.0338,45.0338,0,0,0-8.6333,1.5093c-2.064.6489-3.21,1.4175-3.1617,2.27,0.0391,0.77,1.2842,1.4961,3.2828,2.1514a52.0683,52.0683,0,0,0,7.8613,1.7051c-0.0933-.2989-0.1846-0.5967-0.2788-0.8936-4.9473-.7222-8.9209-1.6577-8.9326-2.6763-0.0044-1.1323,3.7856-2.0459,9.6806-2.5327,2.1509-.1733,4.5811-0.3,7.211-0.3589,2.6264-.06,5.4614-0.06,8.41.0064,2.8,0.0659,5.49.1846,8.0142,0.3525,2.5176,0.1592,4.8584.3682,6.956,0.6,6.2769,0.7046,10.35,1.711,10.3565,2.772,0.0058,0.5371-1.0757,1.0381-2.9546,1.4785a52.6891,52.6891,0,0,1-6.5669.9839l-0.3775.6787a54.503,54.503,0,0,0,7.9888-1.4424c2.2437-.6372,3.5425-1.3716,3.4942-2.15-0.045-.7641-1.29-1.4917-3.43-2.1469a56.1353,56.1353,0,0,0-8.8389-1.7037c-2.1675-.2753-4.543-0.5126-7.0767-0.6928-2.5312-.1792-5.2182-0.31-7.998-0.3682-1.1816-.0264-2.3467-0.0381-3.4883-0.0381-1.5464,0-3.0508.0225-4.4985,0.0674" transform="translate(-309.1904 -89.5384)"/><path class="cls-9" d="M363.57,132.45c-0.0483-.7632-1.29-1.4961-3.4307-2.1514a56.1857,56.1857,0,0,0-8.8379-1.705c-2.1674-.274-4.5419-0.5069-7.0751-0.6861-2.5337-.1841-5.22-0.3086-7.9986-0.3686-2.7851-.0606-5.4712-0.0484-7.9931.0293-2.5176.0771-4.8819,0.226-7.0157,0.43a49.4778,49.4778,0,0,0-8.7343,1.4477c-2.1031.626-3.271,1.4014-3.146,2.3189,0.0063,0.0112.0063,0.0112,0.0063,0.0058-0.0063-.5664,1.4575-1.2158,3.6621-1.7754a50.6264,50.6264,0,0,1,8.0923-1.2822c2.15-.1724,4.5522-0.2974,7.1514-0.3521,2.5986-.0585,5.4-0.0537,8.3476.0191,2.8013,0.0649,5.6787.2139,8.3755,0.3994s5.2246,0.41,7.3218.6494a42.6141,42.6141,0,0,1,7.8945,1.6089c1.9868,0.6372,3.1939,1.3232,3.1939,1.8535,0.0595-.1484.1264-0.2983,0.186-0.4409" transform="translate(-309.1904 -89.5384)"/><path class="cls-10" d="M363.57,132.45c-0.0483-.7632-1.29-1.4961-3.4307-2.1514a56.1857,56.1857,0,0,0-8.8379-1.705c-2.1674-.274-4.5419-0.5069-7.0751-0.6861-2.5337-.1841-5.22-0.3086-7.9986-0.3686-2.7851-.0606-5.4712-0.0484-7.9931.0293-2.5176.0771-4.8819,0.226-7.0157,0.43a49.4778,49.4778,0,0,0-8.7343,1.4477c-2.1031.626-3.271,1.4014-3.146,2.3189,0.0063,0.0112.0063,0.0112,0.0063,0.0058-0.0063-.5664,1.4575-1.2158,3.6621-1.7754a50.6264,50.6264,0,0,1,8.0923-1.2822c2.15-.1724,4.5522-0.2974,7.1514-0.3521,2.5986-.0585,5.4-0.0537,8.3476.0191,2.8013,0.0649,5.6787.2139,8.3755,0.3994s5.2246,0.41,7.3218.6494a42.6141,42.6141,0,0,1,7.8945,1.6089c1.9868,0.6372,3.1939,1.3232,3.1939,1.8535C363.4438,132.7427,363.5107,132.5928,363.57,132.45Z" transform="translate(-309.1904 -89.5384)"/><path class="cls-9" d="M363.57,132.45c-0.0483-.7632-1.29-1.4961-3.4307-2.1514a56.1857,56.1857,0,0,0-8.8379-1.705c-2.1674-.274-4.5419-0.5069-7.0751-0.6861-2.5337-.1841-5.22-0.3086-7.9986-0.3686-2.7851-.0606-5.4712-0.0484-7.9931.0293-2.5176.0771-4.8819,0.226-7.0157,0.43a49.4778,49.4778,0,0,0-8.7343,1.4477c-2.1031.626-3.271,1.4014-3.146,2.3189,0.0063,0.0112.0063,0.0112,0.0063,0.0058-0.0063-.5664,1.4575-1.2158,3.6621-1.7754a50.6264,50.6264,0,0,1,8.0923-1.2822c2.15-.1724,4.5522-0.2974,7.1514-0.3521,2.5986-.0585,5.4-0.0537,8.3476.0191,2.8013,0.0649,5.6787.2139,8.3755,0.3994s5.2246,0.41,7.3218.6494a42.6141,42.6141,0,0,1,7.8945,1.6089c1.9868,0.6372,3.1939,1.3232,3.1939,1.8535,0.0595-.1484.1264-0.2983,0.186-0.4409" transform="translate(-309.1904 -89.5384)"/><path class="cls-1" d="M326.6631,96.8486l0.8515,13.2979c-2.2231-5.7163-4.0449-12.7139-4.51-14.36l-3.0249-.768c-0.0332,3.3144.1206,17.1606,4.4765,29.7182,0.7051-.9116,1.8179-2.3237,2.5772-3.1938a103.3642,103.3642,0,0,1-3.1709-14.7339c0.792,1.7988,4.6006,11.21,5.2886,12.957l2.2988-1.1972c-1.2608-9.3057-1.7681-18.7339-1.8672-20.8028" transform="translate(-309.1904 -89.5384)"/><path class="cls-1" d="M345.0674,106.731l2.6748,1.2568-0.0161-2.5024c-2.2168-1.1739-4.0567-2.1407-7.96-3.8741l-0.1094,2.5811-2.0132-3.47c-1.4648-.6074-4.1235-1.5738-5.4394-2.05a143.8348,143.8348,0,0,0,1.6494,18.8769,17.2317,17.2317,0,0,1,6.1636-.6972l-0.1255-2.7256c-0.7539-.0762-3.5274-0.1348-3.5274-0.1348l-0.4536-4.3154s1.9834,0.333,2.6968.4521L338.396,107.69l-2.7241-.8095-0.2788-4.292,6.934,2.9033,0.1783,11.9316a17.5986,17.5986,0,0,1,2.6274.9961s-0.06-11.6826-.0654-11.6884" transform="translate(-309.1904 -89.5384)"/><path class="cls-1" d="M350.2593,106.6948l-1.61,1.5391s-0.1587,4.3857,1.0264,6.8174c1.72,3.5166,1.3921,4.876,1.4082,5.061a20.6986,20.6986,0,0,0-3.7173-3.6665l-0.0381,3.291a18.9463,18.9463,0,0,1,5.3818,6.6455,18.85,18.85,0,0,0,1.1255-7.1406c-0.0864-1.6392-1.2011-4.2012-2.0249-6.0791-0.934-2.1348-.4052-3.0645-0.3823-3.1475,0.6929,0.4766,3.6958,2.6045,3.6958,2.6045l0.1963-2.771s-3.3408-2.2182-5.061-3.1538" transform="translate(-309.1904 -89.5384)"/><path class="cls-6" d="M329.7143,118.36c-2.227-4.9292-6.13-14.5625-6.13-14.5625l0.1406,1.7661s4.62,11.4487,5.5752,13.6665c0.5337-.2324.9824-0.4707,1.8056-0.87a5.32,5.32,0,0,0-.5175-0.399" transform="translate(-309.1904 -89.5384)"/><polyline class="cls-6" points="18.444 8.502 17.779 7.649 18.674 20.947 19.333 22.528"/><path class="cls-6" d="M334.1641,117.0894a16.8035,16.8035,0,0,1,5.4765-.5059l-0.6167-.6255a15.5687,15.5687,0,0,0-4.2866.3745,131.4,131.4,0,0,1-1.6265-16.3906l-0.6172-.8228a129.8,129.8,0,0,0,1.6705,17.97" transform="translate(-309.1904 -89.5384)"/><path class="cls-6" d="M335.7969,108.6919l0.1079,0.6855s1.3613,0.2618,2.2724.4l-0.5464-.6855" transform="translate(-309.1904 -89.5384)"/><path class="cls-6" d="M340.4756,103.8579c1.2348,0.53,2.6855,1.1392,2.6855,1.1392l0.253,11.8437,1.2333,0.417,0.2784,0.7925a6.3634,6.3634,0,0,0-2.07-.7881L342.6,105.2939s-2.1572-.8823-2.6484-1.0781l0.0551-2.271,0.4917,0.7149" transform="translate(-309.1904 -89.5384)"/><path class="cls-6" d="M338.1221,102.7671c-0.8184-.3931-2.7832-1.2158-2.7832-1.2158l0.0483,0.7505,3.4824,1.4668" transform="translate(-309.1904 -89.5384)"/><polyline class="cls-6" points="35.877 16.334 35.877 16.901 38.334 18.099 37.892 17.323"/><path class="cls-6" d="M320.9624,96.1929a86.0431,86.0431,0,0,0,3.8716,26.3154l1.1294-1.2519,0.6557,0.2382-2.0039,2.3374c-4.6616-13.4116-4.2417-28.2954-4.2417-28.2954" transform="translate(-309.1904 -89.5384)"/><path class="cls-6" d="M348.3486,119.3667l0.0108-1.0132-0.6216-1.3052,0.0044,2.545a17.3714,17.3714,0,0,1,4.7285,5.8291l-0.23-1.4536a17.4986,17.4986,0,0,0-3.8921-4.6021" transform="translate(-309.1904 -89.5384)"/><path class="cls-6" d="M355.0259,110.2295l-0.5352.2144-0.0112.8339c-0.5889-.5239-3.0581-2.163-3.0581-2.163l0.0991,0.6083s1.9761,1.3414,3.3916,2.3721" transform="translate(-309.1904 -89.5384)"/><path class="cls-6" d="M351.4272,120.6777a6.1059,6.1059,0,0,0-.4038-3.6474c-0.8125-2.0562-1.9214-4.398-2.0083-6.0913a10.2556,10.2556,0,0,1,.0493-2.54L349.55,108a10.8686,10.8686,0,0,0,.0054,3.3916,42.1562,42.1562,0,0,0,2.0478,5.6748,8.8158,8.8158,0,0,1,.3491,4.2319" transform="translate(-309.1904 -89.5384)"/><path class="cls-9" d="M343.7407,142.3745a12.93,12.93,0,0,1-8.686.9834,28.3965,28.3965,0,0,0,3.3178,2.1572,18.16,18.16,0,0,0,5.3682-3.1406" transform="translate(-309.1904 -89.5384)"/><path class="cls-10" d="M343.7407,142.3745a12.93,12.93,0,0,1-8.686.9834,28.3965,28.3965,0,0,0,3.3178,2.1572A18.16,18.16,0,0,0,343.7407,142.3745Z" transform="translate(-309.1904 -89.5384)"/></svg>